PathFileType	4	(X/Y/Z)	./resultDataOpenSim/trcMotMarkerGrf/sub10/qtm-15-03.trc
DataRate	CameraRate	NumFrames	NumMarkers	Units	OrigDataRate	OrigDataStartFrame	OrigNumFrames
250.000000	250.000000	8	24	m	250.000000	122	487
Frame#	Time	L.Toe.Tip			R.Toe.Tip			L.Ankle.Lat			R.Ankle.Lat			L.Ankle.Med			R.Ankle.Med			L.Heel			R.Heel			L.Knee.Lat			R.Knee.Lat			L.Knee.Med			R.Knee.Med			L.Thigh.Upper			R.Thigh.Upper			L.ASIS			R.ASIS			V.Sacral			L.Acromium			R.Acromium			C7			L.Elbow			R.Elbow			L.Wrist.Lat			R.Wrist.Lat
		X1	Y1	Z1	X2	Y2	Z2	X3	Y3	Z3	X4	Y4	Z4	X5	Y5	Z5	X6	Y6	Z6	X7	Y7	Z7	X8	Y8	Z8	X9	Y9	Z9	X10	Y10	Z10	X11	Y11	Z11	X12	Y12	Z12	X13	Y13	Z13	X14	Y14	Z14	X15	Y15	Z15	X16	Y16	Z16	X17	Y17	Z17	X18	Y18	Z18	X19	Y19	Z19	X20	Y20	Z20	X21	Y21	Z21	X22	Y22	Z22	X23	Y23	Z23	X24	Y24	Z24

122	0.484	-0.30823015	0.074875309	-0.18777424	-0.69815781	0.039126811	-0.043742715	-0.44211888	0.085286738	-0.21802518	-0.83632165	0.054590452	0.003278039	-0.43467863	0.10692932	-0.13443739	-0.82254145	0.086533351	-0.078328189	-0.49974812	0.043075282	-0.17482941	-0.89068681	0.033593968	-0.042131145	-0.45895478	0.4732151	-0.21993352	-0.74190081	0.44502416	0.066911848	-0.44578149	0.45140832	-0.10174087	-0.73422844	0.45138886	-0.064704268	-0.60403014	0.83556093	-0.25291053	-0.66547674	0.8533695	0.12774544	-0.55900919	0.94185832	-0.17681722	-0.57795251	0.94493031	0.066591202	-0.76544371	0.95607642	-0.077987553	-0.60259508	1.4122272	-0.21079846	-0.60827629	1.4083226	0.11114688	-0.68800592	1.4438376	-0.053805552	-0.75447851	1.1113706	-0.28049742	-0.63415432	1.055696	0.17690446	-0.69388394	0.87554752	-0.30259761	-0.44138969	0.90108619	0.2035938
123	0.488	-0.29041738	0.077376247	-0.18411665	-0.69817063	0.039044316	-0.043762137	-0.42440657	0.083900574	-0.21564207	-0.83630206	0.05471459	0.0032214096	-0.41794976	0.10635797	-0.13217833	-0.82230599	0.086605736	-0.078427878	-0.4810681	0.040583056	-0.17255469	-0.89067594	0.033841667	-0.042293252	-0.45271347	0.47128823	-0.21972878	-0.7392164	0.44454526	0.066596961	-0.44003795	0.44986122	-0.10150962	-0.73136594	0.45099867	-0.064959063	-0.59755902	0.83441346	-0.25307669	-0.66143091	0.85255955	0.12775998	-0.55278228	0.94071652	-0.17693976	-0.57316458	0.94383558	0.066729999	-0.76063558	0.95499721	-0.078684227	-0.59710951	1.4109357	-0.2105477	-0.60278056	1.4070466	0.11140014	-0.68280605	1.4426505	-0.053545931	-0.75081627	1.1110948	-0.28052943	-0.62640303	1.0540677	0.17719381	-0.6921989	0.87488764	-0.30312209	-0.4311515	0.90201112	0.20225021
124	0.492	-0.27296009	0.079960654	-0.18053418	-0.69819866	0.038913909	-0.043831442	-0.40689022	0.082720264	-0.21325652	-0.83624646	0.054840746	0.0031704865	-0.40142141	0.10601387	-0.12998089	-0.8220373	0.086680472	-0.078538169	-0.46257775	0.03840647	-0.17017412	-0.89065715	0.034120745	-0.04244284	-0.44661182	0.46929986	-0.21950139	-0.73604	0.44403048	0.066401267	-0.43433598	0.44816466	-0.10127913	-0.72849163	0.45061571	-0.065279538	-0.59106171	0.83322392	-0.25324503	-0.65721443	0.8517642	0.12758249	-0.54649119	0.9395331	-0.17709075	-0.56834985	0.94272387	0.066827267	-0.75545262	0.95376437	-0.07972488	-0.59160983	1.4095996	-0.21031001	-0.59725867	1.4057197	0.11162268	-0.67756671	1.4414293	-0.053293384	-0.74703683	1.1107862	-0.28043122	-0.61872896	1.0524468	0.17753393	-0.69058379	0.87422833	-0.30372017	-0.42100036	0.90294222	0.20087602
125	0.496	-0.25588798	0.082637442	-0.17704779	-0.69818587	0.038778387	-0.043892672	-0.38957839	0.081794648	-0.21087096	-0.83615627	0.054966377	0.0031245905	-0.38514857	0.10590114	-0.12783484	-0.82173233	0.086753813	-0.078668473	-0.44431966	0.036536223	-0.16773314	-0.89062961	0.034417916	-0.042568864	-0.44052323	0.46727698	-0.21924933	-0.73256735	0.44351486	0.066234854	-0.42863352	0.44634951	-0.10103355	-0.72552816	0.45023137	-0.065600437	-0.58451047	0.83198984	-0.25341731	-0.65294904	0.85094737	0.12737553	-0.54014817	0.93830927	-0.17725633	-0.56351047	0.94159238	0.066886617	-0.74976846	0.95242114	-0.081211546	-0.58610544	1.4082317	-0.21009025	-0.59170063	1.4043376	0.11180488	-0.67207946	1.4401681	-0.05309988	-0.74319072	1.1104551	-0.28026249	-0.6111247	1.0508398	0.17791838	-0.68893157	0.87356353	-0.30431441	-0.41091931	0.90386893	0.19945989
126	0.5	-0.23923035	0.085433042	-0.17362588	-0.69808782	0.038685626	-0.043901211	-0.37251533	0.081170523	-0.2085034	-0.8360372	0.055093287	0.0030816799	-0.36915537	0.10606424	-0.12571592	-0.82138403	0.086826477	-0.078825241	-0.42635153	0.03496714	-0.16531461	-0.89059389	0.034720708	-0.042688696	-0.43429173	0.46524989	-0.21896433	-0.72919369	0.44299435	0.065933297	-0.42289941	0.44443848	-0.1007637	-0.72231472	0.4498467	-0.065821589	-0.57791634	0.83070412	-0.25360171	-0.64869622	0.85011134	0.12720076	-0.53375489	0.93704861	-0.17742135	-0.55864953	0.94044083	0.066914682	-0.74380886	0.95124365	-0.082795372	-0.58059803	1.4068421	-0.2098814	-0.58612792	1.4029139	0.1119414	-0.66634952	1.4388689	-0.052958058	-0.73932235	1.1101047	-0.28010461	-0.60355672	1.0492446	0.17831919	-0.68707149	0.8728757	-0.30478715	-0.40090111	0.90478989	0.1979979
127	0.504	-0.22302244	0.088378951	-0.17022825	-0.69793991	0.038626185	-0.043883209	-0.35579479	0.080849692	-0.20618069	-0.83590039	0.055229185	0.0030384863	-0.35342825	0.10658017	-0.12360462	-0.82099113	0.086904602	-0.079000024	-0.40875275	0.033726276	-0.16304152	-0.89055282	0.035037644	-0.042863828	-0.42790635	0.46323396	-0.21865365	-0.72611248	0.44244142	0.065438463	-0.41712596	0.44244933	-0.10045919	-0.71874602	0.44947149	-0.06589273	-0.57128584	0.82936791	-0.25379662	-0.64440431	0.84924916	0.12699485	-0.52730062	0.93575276	-0.17757681	-0.55375707	0.93927439	0.066915595	-0.73783231	0.95046059	-0.084003731	-0.57507834	1.405433	-0.2096736	-0.58055016	1.4014613	0.11204237	-0.66063199	1.4375414	-0.052794671	-0.73546305	1.1097306	-0.28005062	-0.59598239	1.0476522	0.17870122	-0.68498371	0.87215262	-0.30508582	-0.39094731	0.90570976	0.19649375
128	0.508	-0.20729675	0.091492109	-0.1668482	-0.69780232	0.038562322	-0.043878006	-0.339514	0.080807841	-0.20393004	-0.83576424	0.055387456	0.0029904327	-0.33797672	0.10747797	-0.12151059	-0.82056929	0.086996044	-0.079171987	-0.39164512	0.032840361	-0.16105618	-0.89051202	0.035410087	-0.043209739	-0.42149208	0.46123567	-0.2183366	-0.72312873	0.44185784	0.064852194	-0.41130264	0.44042356	-0.10009156	-0.71488854	0.44909467	-0.065898252	-0.5646144	0.8279894	-0.25399137	-0.63999174	0.84834846	0.1266776	-0.52079182	0.93443521	-0.17772336	-0.54881546	0.93810038	0.066886624	-0.73181057	0.94984531	-0.084920556	-0.56954154	1.4040057	-0.20946432	-0.57492904	1.3999804	0.11213329	-0.65502915	1.4361846	-0.052592217	-0.73162744	1.1093258	-0.28015635	-0.58837647	1.0460523	0.17904579	-0.68275933	0.87140926	-0.30527912	-0.38106766	0.90663139	0.19495988
129	0.512	-0.19207785	0.094758445	-0.16352764	-0.69768783	0.038491114	-0.043879392	-0.32373574	0.081022699	-0.20177719	-0.83564522	0.055581626	0.0029347618	-0.3229154	0.10863144	-0.11949052	-0.82013479	0.087108331	-0.079321322	-0.37514285	0.032275636	-0.1594267	-0.89047577	0.035881208	-0.043808538	-0.41513549	0.45927456	-0.21800099	-0.71994749	0.44126747	0.064300779	-0.40539005	0.43843446	-0.099599943	-0.71093109	0.44866214	-0.066006039	-0.55789884	0.82657422	-0.25417887	-0.6354534	0.84741615	0.12625504	-0.51425211	0.9331228	-0.17785977	-0.54382181	0.93692183	0.066829461	-0.72570478	0.94889481	-0.085985066	-0.5640008	1.4025652	-0.20925952	-0.56924001	1.3984717	0.11222903	-0.64939427	1.4347944	-0.052401303	-0.72779397	1.1088899	-0.28034968	-0.58074716	1.0444381	0.17936526	-0.68044144	0.87067738	-0.30548142	-0.37127495	0.90755589	0.19340949
